<?xml version="1.0" encoding="UTF-8"?>
<svg width="640" height="480" xmlns="http://www.w3.org/2000/svg" xmlns:svg="http://www.w3.org/2000/svg">
 <!-- Created with SVG-edit - http://svg-edit.googlecode.com/ -->
 <g>
  <title>Layer 1</title>

  <path id="svg_3" d="m289,58l-200,340l72,38l89,-117l102,-2l65,127l82,-55l-210,-331z" stroke-linecap="null" stroke-linejoin="null" stroke-dasharray="null" stroke-width="5" stroke="#000000" fill="#FF0000"/>
  <path id="svg_5" d="m296,195l-44,70l86,-3l-42,-67z" stroke-linecap="null" stroke-linejoin="null" stroke-dasharray="null" stroke-width="5" stroke="#000000" fill="#ffffff"/>
  <circle id="svg_6" r="36.400551" cy="144" cx="252" stroke-linecap="null" stroke-linejoin="null" stroke-dasharray="null" stroke-width="5" stroke="#000000" fill="#ffffff"/>
  <circle id="svg_10" r="15.6205" cy="148" cx="263.999999" stroke-linecap="null" stroke-linejoin="null" stroke-dasharray="null" stroke-width="5" stroke="#000000" fill="#000000"/>
  <circle id="svg_7" r="51.623638" cy="142" cx="325" stroke-linecap="null" stroke-linejoin="null" stroke-dasharray="null" stroke-width="5" stroke="#000000" fill="#ffffff"/>
  <circle id="svg_9" r="15.6205" cy="145" cx="323" stroke-linecap="null" stroke-linejoin="null" stroke-dasharray="null" stroke-width="5" stroke="#000000" fill="#000000"/>
  <path d="m189,259c0,1.799988 0,2.635986 0,3.484009c0,0.863312 0,1.880005 0,2.717316c0,0.965332 0,1.798676 0,2.777344c0,0.773987 -0.000214,1.682983 0,2.483002c0.000259,0.959839 -0.050751,1.791718 0.171494,2.642822c0.240997,0.922913 0.673065,1.505524 1.125839,2.116852c0.487915,0.658783 1.060608,1.324768 1.781326,2.521332c0.251312,0.417236 0.69278,1.309601 1.146667,2.206665c0.225739,0.446136 0.921158,1.731445 1.458679,2.478668c0.259109,0.360199 0.805252,1.019531 1.363327,1.605835c1.012024,1.063202 1.495499,1.509003 2.141998,2.155487c0.810669,0.810669 1.209351,1.209351 1.789841,1.789825c0.854172,0.854156 1.384827,1.384857 2.020828,2.020844c0.600006,0.600006 1.239136,1.40567 1.88533,1.714661c0.88916,0.425171 1.738007,0.298889 2.714676,0.642517c0.822693,0.289459 1.581635,0.784058 2.399994,1.121979c0.980576,0.404877 1.606171,0.428864 2.399994,0.573517c1.011658,0.184326 1.845963,0.576538 2.766678,1.113983c0.524521,0.306183 1.336945,0.847229 1.937836,1.123505c1.165771,0.536011 1.783112,0.633942 2.623489,0.688507c1.127167,0.073181 1.929901,0.025452 2.814835,0.242676c0.725357,0.17807 1.499069,0.475616 2.536163,0.657318c0.955734,0.16745 1.777542,0.192169 2.785507,0.342682c0.80864,0.120758 1.69751,0.281799 2.167496,0.353333c0.971039,0.147797 1.966858,0.2742 2.965332,0.339996c0.980453,0.064606 1.460907,0.071045 2.388336,0.080841c1.280945,0.01355 2.042328,0.004486 3.051834,0.004486c0.596329,0 1.875839,0 2.520828,0c1.020172,0 1.840332,0 2.741669,0c0.936005,0 1.789749,0.04071 2.546677,-0.036011c1.183289,-0.119934 1.986435,-0.400879 2.563995,-0.538666c1.183899,-0.282471 1.786667,-0.361938 2.668503,-0.40448c0.834747,-0.040283 2.071854,0.073425 2.859161,-0.078003c0.938614,-0.180542 1.531525,-0.718048 2.497665,-0.917511c0.757111,-0.156311 1.761414,-0.399261 2.399994,-0.600006c0.921478,-0.289673 1.718109,-0.325073 2.754181,-0.477997c0.87381,-0.128967 1.593964,-0.605835 2.493835,-1.145996c0.669891,-0.40213 1.505035,-0.639008 2.268646,-0.854004c0.910461,-0.256348 1.759583,-0.691711 2.226501,-1.447327c0.465118,-0.752686 1.021851,-1.498993 1.62085,-2.100006c0.59967,-0.601654 1.114655,-1.370667 1.314667,-2.167999l0.064484,-0.731995" id="svg_11" stroke-linecap="null" stroke-linejoin="null" stroke-dasharray="null" stroke-width="5" stroke="#000000" fill="none"/>
 </g>
</svg>